<svg xmlns="http://www.w3.org/2000/svg" width="620.1968383789062" height="622.3544921875" viewBox="-219.81192016601562 -223.7977294921875 620.1968383789062 622.3544921875"><title>Neo4j Graph Visualization</title><desc>Created using Neo4j (http://www.neo4j.com/)</desc><g class="layer relationships"><g class="relationship" transform="translate(-56.03094945628776 139.07871930424386) rotate(337.18444165978735)"><path class="outline" fill="#A5ABB6" stroke="none" d="M 25 0.5 L 59.234700989239386 0.5 L 59.234700989239386 -0.5 L 25 -0.5 Z M 93.68001348923939 0.5 L 127.91471447847877 0.5 L 127.91471447847877 3.5 L 134.91471447847877 0 L 127.91471447847877 -3.5 L 127.91471447847877 -0.5 L 93.68001348923939 -0.5 Z"/><text text-anchor="middle" pointer-events="none" font-size="8px" fill="#000000" x="76.45735723923939" y="3" font-family="sans-serif">ORIGIN</text></g><g class="relationship" transform="translate(-56.03094945628776 139.07871930424386) rotate(202.99663826096725)"><path class="outline" fill="#A5ABB6" stroke="none" d="M 25 0.5 L 40.11282636915959 0.5 L 40.11282636915959 -0.5 L 25 -0.5 Z M 99.30423261915959 0.5 L 114.41705898831918 0.5 L 114.41705898831918 3.5 L 121.41705898831918 0 L 114.41705898831918 -3.5 L 114.41705898831918 -0.5 L 99.30423261915959 -0.5 Z"/><text text-anchor="middle" pointer-events="none" font-size="8px" fill="#000000" x="69.70852949415959" y="3" transform="rotate(180 69.70852949415959 0)" font-family="sans-serif">DESTINATION</text></g><g class="relationship" transform="translate(265.21981275952317 147.32048912992923) rotate(202.00341287155726)"><path class="outline" fill="#A5ABB6" stroke="none" d="M 25 0.5 L 73.03021478697889 0.5 L 73.03021478697889 -0.5 L 25 -0.5 Z M 107.47552728697889 0.5 L 155.50574207395778 0.5 L 155.50574207395778 3.5 L 162.50574207395778 0 L 155.50574207395778 -3.5 L 155.50574207395778 -0.5 L 107.47552728697889 -0.5 Z"/><text text-anchor="middle" pointer-events="none" font-size="8px" fill="#000000" x="90.25287103697889" y="3" transform="rotate(180 90.25287103697889 0)" font-family="sans-serif">ORIGIN</text></g><g class="relationship" transform="translate(265.21981275952317 147.32048912992923) rotate(379.65631823943386)"><path class="outline" fill="#A5ABB6" stroke="none" d="M 25 0.5 L 25.79936604827993 0.5 L 25.79936604827993 -0.5 L 25 -0.5 Z M 69.13530354827992 0.5 L 69.93466959655986 0.5 L 69.93466959655986 3.5 L 76.93466959655986 0 L 69.93466959655986 -3.5 L 69.93466959655986 -0.5 L 69.13530354827992 -0.5 Z"/><text text-anchor="middle" pointer-events="none" font-size="8px" fill="#000000" x="47.46733479827993" y="3" font-family="sans-serif">DESTIN…</text></g><g class="relationship" transform="translate(237.6208150626244 4.94603329924181) rotate(513.7496435805853)"><path class="outline" fill="#A5ABB6" stroke="none" d="M 25 0.5 L 60.81040669599196 0.5 L 60.81040669599196 -0.5 L 25 -0.5 Z M 95.25571919599196 0.5 L 131.06612589198392 0.5 L 131.06612589198392 3.5 L 138.06612589198392 0 L 131.06612589198392 -3.5 L 131.06612589198392 -0.5 L 95.25571919599196 -0.5 Z"/><text text-anchor="middle" pointer-events="none" font-size="8px" fill="#000000" x="78.03306294599196" y="3" transform="rotate(180 78.03306294599196 0)" font-family="sans-serif">ORIGIN</text></g><g class="relationship" transform="translate(237.6208150626244 4.94603329924181) rotate(332.26267331261147)"><path class="outline" fill="#A5ABB6" stroke="none" d="M 25 0.5 L 42.469508544679414 0.5 L 42.469508544679414 -0.5 L 25 -0.5 Z M 101.66091479467941 0.5 L 119.13042333935883 0.5 L 119.13042333935883 3.5 L 126.13042333935883 0 L 119.13042333935883 -3.5 L 119.13042333935883 -0.5 L 101.66091479467941 -0.5 Z"/><text text-anchor="middle" pointer-events="none" font-size="8px" fill="#000000" x="72.06521166967941" y="3" font-family="sans-serif">DESTINATION</text></g><g class="relationship" transform="translate(-36.95659707140174 65.58874014911707) rotate(365.1121856486432)"><path class="outline" fill="#A5ABB6" stroke="none" d="M 25 0.5 L 43.69774800456402 0.5 L 43.69774800456402 -0.5 L 25 -0.5 Z M 78.14306050456402 0.5 L 96.84080850912804 0.5 L 96.84080850912804 3.5 L 103.84080850912804 0 L 96.84080850912804 -3.5 L 96.84080850912804 -0.5 L 78.14306050456402 -0.5 Z"/><text text-anchor="middle" pointer-events="none" font-size="8px" fill="#000000" x="60.92040425456402" y="3" font-family="sans-serif">ORIGIN</text></g><g class="relationship" transform="translate(-36.95659707140174 65.58874014911707) rotate(533.9567839966595)"><path class="outline" fill="#A5ABB6" stroke="none" d="M 25 0.5 L 44.261851681065906 0.5 L 44.261851681065906 -0.5 L 25 -0.5 Z M 103.4532579310659 0.5 L 122.71510961213181 0.5 L 122.71510961213181 3.5 L 129.7151096121318 0 L 122.71510961213181 -3.5 L 122.71510961213181 -0.5 L 103.4532579310659 -0.5 Z"/><text text-anchor="middle" pointer-events="none" font-size="8px" fill="#000000" x="73.8575548060659" y="3" transform="rotate(180 73.8575548060659 0)" font-family="sans-serif">DESTINATION</text></g><g class="relationship" transform="translate(93.93357900720085 239.29704253994325) rotate(269.09526826577223)"><path class="outline" fill="#A5ABB6" stroke="none" d="M 25 0.5 L 60.401355441281694 0.5 L 60.401355441281694 -0.5 L 25 -0.5 Z M 94.8466679412817 0.5 L 130.2480233825634 0.5 L 130.2480233825634 3.5 L 137.2480233825634 0 L 130.2480233825634 -3.5 L 130.2480233825634 -0.5 L 94.8466679412817 -0.5 Z"/><text text-anchor="middle" pointer-events="none" font-size="8px" fill="#000000" x="77.6240116912817" y="3" transform="rotate(180 77.6240116912817 0)" font-family="sans-serif">ORIGIN</text></g><g class="relationship" transform="translate(93.93357900720085 239.29704253994325) rotate(472.5620107942922)"><path class="outline" fill="#A5ABB6" stroke="none" d="M 25 0.5 L 36.36340725363634 0.5 L 36.36340725363634 -0.5 L 25 -0.5 Z M 95.55481350363634 0.5 L 106.91822075727268 0.5 L 106.91822075727268 3.5 L 113.91822075727268 0 L 106.91822075727268 -3.5 L 106.91822075727268 -0.5 L 95.55481350363634 -0.5 Z"/><text text-anchor="middle" pointer-events="none" font-size="8px" fill="#000000" x="65.95911037863634" y="3" transform="rotate(180 65.95911037863634 0)" font-family="sans-serif">DESTINATION</text></g><g class="relationship" transform="translate(118.35952764293384 -96.64186881799884) rotate(458.83089649166016)"><path class="outline" fill="#A5ABB6" stroke="none" d="M 25 0.5 L 67.17486126638981 0.5 L 67.17486126638981 -0.5 L 25 -0.5 Z M 101.62017376638981 0.5 L 143.79503503277962 0.5 L 143.79503503277962 3.5 L 150.79503503277962 0 L 143.79503503277962 -3.5 L 143.79503503277962 -0.5 L 101.62017376638981 -0.5 Z"/><text text-anchor="middle" pointer-events="none" font-size="8px" fill="#000000" x="84.39751751638981" y="3" transform="rotate(180 84.39751751638981 0)" font-family="sans-serif">ORIGIN</text></g><g class="relationship" transform="translate(118.35952764293384 -96.64186881799884) rotate(253.08251700335472)"><path class="outline" fill="#A5ABB6" stroke="none" d="M 25 0.5 L 26.12988393038126 0.5 L 26.12988393038126 -0.5 L 25 -0.5 Z M 69.46582143038125 0.5 L 70.59570536076252 0.5 L 70.59570536076252 3.5 L 77.59570536076252 0 L 70.59570536076252 -3.5 L 70.59570536076252 -0.5 L 69.46582143038125 -0.5 Z"/><text text-anchor="middle" pointer-events="none" font-size="8px" fill="#000000" x="47.79785268038126" y="3" transform="rotate(180 47.79785268038126 0)" font-family="sans-serif">DESTIN…</text></g><g class="relationship" transform="translate(213.73512205627898 116.90630986324805) rotate(198.03335838037697)"><path class="outline" fill="#A5ABB6" stroke="none" d="M 25 0.5 L 43.619784268448484 0.5 L 43.619784268448484 -0.5 L 25 -0.5 Z M 78.06509676844848 0.5 L 96.68488103689697 0.5 L 96.68488103689697 3.5 L 103.68488103689697 0 L 96.68488103689697 -3.5 L 96.68488103689697 -0.5 L 78.06509676844848 -0.5 Z"/><text text-anchor="middle" pointer-events="none" font-size="8px" fill="#000000" x="60.842440518448484" y="3" transform="rotate(180 60.842440518448484 0)" font-family="sans-serif">ORIGIN</text></g><g class="relationship" transform="translate(213.73512205627898 116.90630986324805) rotate(383.68820401691005)"><path class="outline" fill="#A5ABB6" stroke="none" d="M 25 0.5 L 47.428512780657954 0.5 L 47.428512780657954 -0.5 L 25 -0.5 Z M 106.61991903065795 0.5 L 129.0484318113159 0.5 L 129.0484318113159 3.5 L 136.0484318113159 0 L 129.0484318113159 -3.5 L 129.0484318113159 -0.5 L 106.61991903065795 -0.5 Z"/><text text-anchor="middle" pointer-events="none" font-size="8px" fill="#000000" x="77.02421590565795" y="3" font-family="sans-serif">DESTINATION</text></g><g class="relationship" transform="translate(264.9017476569718 85.6950677942194) rotate(182.84571300791356)"><path class="outline" fill="#A5ABB6" stroke="none" d="M 25 0.5 L 66.14949423476028 0.5 L 66.14949423476028 -0.5 L 25 -0.5 Z M 100.59480673476028 0.5 L 141.74430096952057 0.5 L 141.74430096952057 3.5 L 148.74430096952057 0 L 141.74430096952057 -3.5 L 141.74430096952057 -0.5 L 100.59480673476028 -0.5 Z"/><text text-anchor="middle" pointer-events="none" font-size="8px" fill="#000000" x="83.37215048476028" y="3" transform="rotate(180 83.37215048476028 0)" font-family="sans-serif">ORIGIN</text></g><g class="relationship" transform="translate(264.9017476569718 85.6950677942194) rotate(404.8811373127444)"><path class="outline" fill="#A5ABB6" stroke="none" d="M 25 0.5 L 34.866831530371755 0.5 L 34.866831530371755 -0.5 L 25 -0.5 Z M 94.05823778037175 0.5 L 103.92506931074351 0.5 L 103.92506931074351 3.5 L 110.92506931074351 0 L 103.92506931074351 -3.5 L 103.92506931074351 -0.5 L 94.05823778037175 -0.5 Z"/><text text-anchor="middle" pointer-events="none" font-size="8px" fill="#000000" x="64.46253465537175" y="3" font-family="sans-serif">DESTINATION</text></g><g class="relationship" transform="translate(-91.2437946875922 90.6398013520614) rotate(355.75003757666025)"><path class="outline" fill="#A5ABB6" stroke="none" d="M 25 0.5 L 70.83685852989622 0.5 L 70.83685852989622 -0.5 L 25 -0.5 Z M 105.28217102989622 0.5 L 151.11902955979244 0.5 L 151.11902955979244 3.5 L 158.11902955979244 0 L 151.11902955979244 -3.5 L 151.11902955979244 -0.5 L 105.28217102989622 -0.5 Z"/><text text-anchor="middle" pointer-events="none" font-size="8px" fill="#000000" x="88.05951477989622" y="3" font-family="sans-serif">ORIGIN</text></g><g class="relationship" transform="translate(-91.2437946875922 90.6398013520614) rotate(185.0295771109876)"><path class="outline" fill="#A5ABB6" stroke="none" d="M 25 0.5 L 27.697196239640775 0.5 L 27.697196239640775 -0.5 L 25 -0.5 Z M 65.25578998964077 0.5 L 67.95298622928155 0.5 L 67.95298622928155 3.5 L 74.95298622928155 0 L 67.95298622928155 -3.5 L 67.95298622928155 -0.5 L 65.25578998964077 -0.5 Z"/><text text-anchor="middle" pointer-events="none" font-size="8px" fill="#000000" x="46.476493114640775" y="3" transform="rotate(180 46.476493114640775 0)" font-family="sans-serif">DESTI…</text></g><g class="relationship" transform="translate(147.84448917475393 -44.47600884295662) rotate(474.92069107340745)"><path class="outline" fill="#A5ABB6" stroke="none" d="M 25 0.5 L 46.289329487058296 0.5 L 46.289329487058296 -0.5 L 25 -0.5 Z M 80.7346419870583 0.5 L 102.02397147411659 0.5 L 102.02397147411659 3.5 L 109.02397147411659 0 L 102.02397147411659 -3.5 L 102.02397147411659 -0.5 L 80.7346419870583 -0.5 Z"/><text text-anchor="middle" pointer-events="none" font-size="8px" fill="#000000" x="63.511985737058296" y="3" transform="rotate(180 63.511985737058296 0)" font-family="sans-serif">ORIGIN</text></g><g class="relationship" transform="translate(147.84448917475393 -44.47600884295662) rotate(248.45830201929323)"><path class="outline" fill="#A5ABB6" stroke="none" d="M 25 0.5 L 47.709340864862966 0.5 L 47.709340864862966 -0.5 L 25 -0.5 Z M 106.90074711486297 0.5 L 129.61008797972593 0.5 L 129.61008797972593 3.5 L 136.61008797972593 0 L 129.61008797972593 -3.5 L 129.61008797972593 -0.5 L 106.90074711486297 -0.5 Z"/><text text-anchor="middle" pointer-events="none" font-size="8px" fill="#000000" x="77.30504398986297" y="3" transform="rotate(180 77.30504398986297 0)" font-family="sans-serif">DESTINATION</text></g><g class="relationship" transform="translate(-77.48068062704793 21.42034890100919) rotate(378.24073621146175)"><path class="outline" fill="#A5ABB6" stroke="none" d="M 25 0.5 L 68.17043451068452 0.5 L 68.17043451068452 -0.5 L 25 -0.5 Z M 102.61574701068452 0.5 L 145.78618152136903 0.5 L 145.78618152136903 3.5 L 152.78618152136903 0 L 145.78618152136903 -3.5 L 145.78618152136903 -0.5 L 102.61574701068452 -0.5 Z"/><text text-anchor="middle" pointer-events="none" font-size="8px" fill="#000000" x="85.39309076068452" y="3" font-family="sans-serif">ORIGIN</text></g><g class="relationship" transform="translate(-77.48068062704793 21.42034890100919) rotate(511.92229873081175)"><path class="outline" fill="#A5ABB6" stroke="none" d="M 25 0.5 L 31.128449673315046 0.5 L 31.128449673315046 -0.5 L 25 -0.5 Z M 90.31985592331505 0.5 L 96.44830559663009 0.5 L 96.44830559663009 3.5 L 103.44830559663009 0 L 96.44830559663009 -3.5 L 96.44830559663009 -0.5 L 90.31985592331505 -0.5 Z"/><text text-anchor="middle" pointer-events="none" font-size="8px" fill="#000000" x="60.724152798315046" y="3" transform="rotate(180 60.724152798315046 0)" font-family="sans-serif">DESTINATION</text></g><g class="relationship" transform="translate(178.3109345062127 -95.96419010692877) rotate(476.6768664619473)"><path class="outline" fill="#A5ABB6" stroke="none" d="M 25 0.5 L 76.10063712088376 0.5 L 76.10063712088376 -0.5 L 25 -0.5 Z M 110.54594962088376 0.5 L 161.64658674176752 0.5 L 161.64658674176752 3.5 L 168.64658674176752 0 L 161.64658674176752 -3.5 L 161.64658674176752 -0.5 L 110.54594962088376 -0.5 Z"/><text text-anchor="middle" pointer-events="none" font-size="8px" fill="#000000" x="93.32329337088376" y="3" transform="rotate(180 93.32329337088376 0)" font-family="sans-serif">ORIGIN</text></g><g class="relationship" transform="translate(178.3109345062127 -95.96419010692877) rotate(227.73980836470054)"><path class="outline" fill="#A5ABB6" stroke="none" d="M 25 0.5 L 33.674825284169245 0.5 L 33.674825284169245 -0.5 L 25 -0.5 Z M 92.86623153416924 0.5 L 101.54105681833849 0.5 L 101.54105681833849 3.5 L 108.54105681833849 0 L 101.54105681833849 -3.5 L 101.54105681833849 -0.5 L 92.86623153416924 -0.5 Z"/><text text-anchor="middle" pointer-events="none" font-size="8px" fill="#000000" x="63.270528409169245" y="3" transform="rotate(180 63.270528409169245 0)" font-family="sans-serif">DESTINATION</text></g><g class="relationship" transform="translate(34.72375751429211 230.09102876235056) rotate(290.3143149149371)"><path class="outline" fill="#A5ABB6" stroke="none" d="M 25 0.5 L 60.862660030684836 0.5 L 60.862660030684836 -0.5 L 25 -0.5 Z M 95.30797253068484 0.5 L 131.17063256136967 0.5 L 131.17063256136967 3.5 L 138.17063256136967 0 L 131.17063256136967 -3.5 L 131.17063256136967 -0.5 L 95.30797253068484 -0.5 Z"/><text text-anchor="middle" pointer-events="none" font-size="8px" fill="#000000" x="78.08531628068484" y="3" font-family="sans-serif">ORIGIN</text></g><g class="relationship" transform="translate(34.72375751429211 230.09102876235056) rotate(447.5390106609012)"><path class="outline" fill="#A5ABB6" stroke="none" d="M 25 0.5 L 35.71381213380005 0.5 L 35.71381213380005 -0.5 L 25 -0.5 Z M 94.90521838380005 0.5 L 105.6190305176001 0.5 L 105.6190305176001 3.5 L 112.6190305176001 0 L 105.6190305176001 -3.5 L 105.6190305176001 -0.5 L 94.90521838380005 -0.5 Z"/><text text-anchor="middle" pointer-events="none" font-size="8px" fill="#000000" x="65.30951525880005" y="3" font-family="sans-serif">DESTINATION</text></g><g class="relationship" transform="translate(87.900097934217 -45.096224372204915) rotate(448.3722515975608)"><path class="outline" fill="#A5ABB6" stroke="none" d="M 25 0.5 L 40.384737432236946 0.5 L 40.384737432236946 -0.5 L 25 -0.5 Z M 74.83004993223695 0.5 L 90.21478736447389 0.5 L 90.21478736447389 3.5 L 97.21478736447389 0 L 90.21478736447389 -3.5 L 90.21478736447389 -0.5 L 74.83004993223695 -0.5 Z"/><text text-anchor="middle" pointer-events="none" font-size="8px" fill="#000000" x="57.607393682236946" y="3" font-family="sans-serif">ORIGIN</text></g><g class="relationship" transform="translate(87.900097934217 -45.096224372204915) rotate(270.2314303535934)"><path class="outline" fill="#A5ABB6" stroke="none" d="M 25 0.5 L 41.75565939398166 0.5 L 41.75565939398166 -0.5 L 25 -0.5 Z M 100.94706564398166 0.5 L 117.70272503796332 0.5 L 117.70272503796332 3.5 L 124.70272503796332 0 L 117.70272503796332 -3.5 L 117.70272503796332 -0.5 L 100.94706564398166 -0.5 Z"/><text text-anchor="middle" pointer-events="none" font-size="8px" fill="#000000" x="71.35136251898166" y="3" font-family="sans-serif">DESTINATION</text></g><g class="relationship" transform="translate(57.09994545339794 -96.45703235818169) rotate(438.82776369330185)"><path class="outline" fill="#A5ABB6" stroke="none" d="M 25 0.5 L 67.71647899510175 0.5 L 67.71647899510175 -0.5 L 25 -0.5 Z M 102.16179149510175 0.5 L 144.8782704902035 0.5 L 144.8782704902035 3.5 L 151.8782704902035 0 L 144.8782704902035 -3.5 L 144.8782704902035 -0.5 L 102.16179149510175 -0.5 Z"/><text text-anchor="middle" pointer-events="none" font-size="8px" fill="#000000" x="84.93913524510175" y="3" font-family="sans-serif">ORIGIN</text></g><g class="relationship" transform="translate(57.09994545339794 -96.45703235818169) rotate(287.7107407310793)"><path class="outline" fill="#A5ABB6" stroke="none" d="M 25 0.5 L 26.448782437547138 0.5 L 26.448782437547138 -0.5 L 25 -0.5 Z M 69.78471993754714 0.5 L 71.23350237509428 0.5 L 71.23350237509428 3.5 L 78.23350237509428 0 L 71.23350237509428 -3.5 L 71.23350237509428 -0.5 L 69.78471993754714 -0.5 Z"/><text text-anchor="middle" pointer-events="none" font-size="8px" fill="#000000" x="48.11675118754714" y="3" font-family="sans-serif">DESTIN…</text></g><g class="relationship" transform="translate(27.911961036435454 -44.18462980314796) rotate(422.37412364991064)"><path class="outline" fill="#A5ABB6" stroke="none" d="M 25 0.5 L 47.705483036338634 0.5 L 47.705483036338634 -0.5 L 25 -0.5 Z M 82.15079553633863 0.5 L 104.85627857267727 0.5 L 104.85627857267727 3.5 L 111.85627857267727 0 L 104.85627857267727 -3.5 L 104.85627857267727 -0.5 L 82.15079553633863 -0.5 Z"/><text text-anchor="middle" pointer-events="none" font-size="8px" fill="#000000" x="64.92813928633863" y="3" font-family="sans-serif">ORIGIN</text></g><g class="relationship" transform="translate(27.911961036435454 -44.18462980314796) rotate(291.91530552761276)"><path class="outline" fill="#A5ABB6" stroke="none" d="M 25 0.5 L 48.07663663318452 0.5 L 48.07663663318452 -0.5 L 25 -0.5 Z M 107.26804288318452 0.5 L 130.34467951636904 0.5 L 130.34467951636904 3.5 L 137.34467951636904 0 L 130.34467951636904 -3.5 L 130.34467951636904 -0.5 L 107.26804288318452 -0.5 Z"/><text text-anchor="middle" pointer-events="none" font-size="8px" fill="#000000" x="77.67233975818452" y="3" font-family="sans-serif">DESTINATION</text></g><g class="relationship" transform="translate(-15.061892290963762 193.29061676418698) rotate(312.48293262149616)"><path class="outline" fill="#A5ABB6" stroke="none" d="M 25 0.5 L 58.07378496008769 0.5 L 58.07378496008769 -0.5 L 25 -0.5 Z M 92.51909746008769 0.5 L 125.59288242017539 0.5 L 125.59288242017539 3.5 L 132.59288242017539 0 L 125.59288242017539 -3.5 L 125.59288242017539 -0.5 L 92.51909746008769 -0.5 Z"/><text text-anchor="middle" pointer-events="none" font-size="8px" fill="#000000" x="75.29644121008769" y="3" font-family="sans-serif">ORIGIN</text></g><g class="relationship" transform="translate(-15.061892290963762 193.29061676418698) rotate(495.91977643408836)"><path class="outline" fill="#A5ABB6" stroke="none" d="M 25 0.5 L 43.22329830760253 0.5 L 43.22329830760253 -0.5 L 25 -0.5 Z M 102.41470455760253 0.5 L 120.63800286520507 0.5 L 120.63800286520507 3.5 L 127.63800286520507 0 L 120.63800286520507 -3.5 L 120.63800286520507 -0.5 L 102.41470455760253 -0.5 Z"/><text text-anchor="middle" pointer-events="none" font-size="8px" fill="#000000" x="72.81900143260253" y="3" transform="rotate(180 72.81900143260253 0)" font-family="sans-serif">DESTINATION</text></g><g class="relationship" transform="translate(219.1413280753784 185.62220549208735) rotate(220.3511983323803)"><path class="outline" fill="#A5ABB6" stroke="none" d="M 25 0.5 L 63.10577377155522 0.5 L 63.10577377155522 -0.5 L 25 -0.5 Z M 97.55108627155522 0.5 L 135.65686004311044 0.5 L 135.65686004311044 3.5 L 142.65686004311044 0 L 135.65686004311044 -3.5 L 135.65686004311044 -0.5 L 97.55108627155522 -0.5 Z"/><text text-anchor="middle" pointer-events="none" font-size="8px" fill="#000000" x="80.32843002155522" y="3" transform="rotate(180 80.32843002155522 0)" font-family="sans-serif">ORIGIN</text></g><g class="relationship" transform="translate(219.1413280753784 185.62220549208735) rotate(358.3819730014138)"><path class="outline" fill="#A5ABB6" stroke="none" d="M 25 0.5 L 37.969203205316944 0.5 L 37.969203205316944 -0.5 L 25 -0.5 Z M 97.16060945531694 0.5 L 110.12981266063389 0.5 L 110.12981266063389 3.5 L 117.12981266063389 0 L 110.12981266063389 -3.5 L 110.12981266063389 -0.5 L 97.16060945531694 -0.5 Z"/><text text-anchor="middle" pointer-events="none" font-size="8px" fill="#000000" x="67.56490633031694" y="3" font-family="sans-serif">DESTINATION</text></g><g class="relationship" transform="translate(-2.870357402584309 -95.48977053164448) rotate(421.3591078669569)"><path class="outline" fill="#A5ABB6" stroke="none" d="M 25 0.5 L 77.58576116762315 0.5 L 77.58576116762315 -0.5 L 25 -0.5 Z M 112.03107366762315 0.5 L 164.6168348352463 0.5 L 164.6168348352463 3.5 L 171.6168348352463 0 L 164.6168348352463 -3.5 L 164.6168348352463 -0.5 L 112.03107366762315 -0.5 Z"/><text text-anchor="middle" pointer-events="none" font-size="8px" fill="#000000" x="94.80841741762315" y="3" font-family="sans-serif">ORIGIN</text></g><g class="relationship" transform="translate(-2.870357402584309 -95.48977053164448) rotate(312.61774766475486)"><path class="outline" fill="#A5ABB6" stroke="none" d="M 25 0.5 L 34.37926624559853 0.5 L 34.37926624559853 -0.5 L 25 -0.5 Z M 93.57067249559853 0.5 L 102.94993874119706 0.5 L 102.94993874119706 3.5 L 109.94993874119706 0 L 102.94993874119706 -3.5 L 102.94993874119706 -0.5 L 93.57067249559853 -0.5 Z"/><text text-anchor="middle" pointer-events="none" font-size="8px" fill="#000000" x="63.97496937059853" y="3" font-family="sans-serif">DESTINATION</text></g><g class="relationship" transform="translate(155.14782152755814 226.7569500550048) rotate(246.92302807498191)"><path class="outline" fill="#A5ABB6" stroke="none" d="M 25 0.5 L 60.63120396310157 0.5 L 60.63120396310157 -0.5 L 25 -0.5 Z M 95.07651646310157 0.5 L 130.70772042620314 0.5 L 130.70772042620314 3.5 L 137.70772042620314 0 L 130.70772042620314 -3.5 L 130.70772042620314 -0.5 L 95.07651646310157 -0.5 Z"/><text text-anchor="middle" pointer-events="none" font-size="8px" fill="#000000" x="77.85386021310157" y="3" transform="rotate(180 77.85386021310157 0)" font-family="sans-serif">ORIGIN</text></g><g class="relationship" transform="translate(155.14782152755814 226.7569500550048) rotate(427.3686398619762)"><path class="outline" fill="#A5ABB6" stroke="none" d="M 25 0.5 L 44.26066963029341 0.5 L 44.26066963029341 -0.5 L 25 -0.5 Z M 103.4520758802934 0.5 L 122.71274551058681 0.5 L 122.71274551058681 3.5 L 129.7127455105868 0 L 122.71274551058681 -3.5 L 122.71274551058681 -0.5 L 103.4520758802934 -0.5 Z"/><text text-anchor="middle" pointer-events="none" font-size="8px" fill="#000000" x="73.8563727552934" y="3" font-family="sans-serif">DESTINATION</text></g></g><g class="layer nodes"><g class="node" transform="translate(91.3717003362528,77.06924631123225)"><circle class="outline" cx="0" cy="0" r="25" fill="#ECB5C9" stroke="#da7298" stroke-width="2px"/><text text-anchor="middle" pointer-events="none" font-family="sans-serif" dy="1.5625" font-size="25" fill="#2A2C34"/><text text-anchor="middle" pointer-events="none" x="0" y="5" font-size="10px" fill="#2A2C34" font-family="sans-serif"> LAX</text></g><g class="node" transform="translate(-190.8119193398868,81.87692457693385)"><circle class="outline" cx="0" cy="0" r="25" fill="#ECB5C9" stroke="#da7298" stroke-width="2px"/><text text-anchor="middle" pointer-events="none" font-family="sans-serif" dy="1.5625" font-size="25" fill="#2A2C34"/><text text-anchor="middle" pointer-events="none" x="0" y="5" font-size="10px" fill="#2A2C34" font-family="sans-serif"> SMF</text></g><g class="node" transform="translate(361.2144708174181,181.60900747219145)"><circle class="outline" cx="0" cy="0" r="25" fill="#ECB5C9" stroke="#da7298" stroke-width="2px"/><text text-anchor="middle" pointer-events="none" font-family="sans-serif" dy="1.5625" font-size="25" fill="#2A2C34"/><text text-anchor="middle" pointer-events="none" x="0" y="5" font-size="10px" fill="#2A2C34" font-family="sans-serif"> FAT</text></g><g class="node" transform="translate(371.38493297600877,-65.39290056805547)"><circle class="outline" cx="0" cy="0" r="25" fill="#ECB5C9" stroke="#da7298" stroke-width="2px"/><text text-anchor="middle" pointer-events="none" font-family="sans-serif" dy="1.5625" font-size="25" fill="#2A2C34"/><text text-anchor="middle" pointer-events="none" x="0" y="5" font-size="10px" fill="#2A2C34" font-family="sans-serif"> LAS</text></g><g class="node" transform="translate(40.63300320355812,367.5831317209861)"><circle class="outline" cx="0" cy="0" r="25" fill="#ECB5C9" stroke="#da7298" stroke-width="2px"/><text text-anchor="middle" pointer-events="none" font-family="sans-serif" dy="1.5625" font-size="25" fill="#2A2C34"/><text text-anchor="middle" pointer-events="none" x="0" y="5" font-size="10px" fill="#2A2C34" font-family="sans-serif"> TUS</text></g><g class="node" transform="translate(88.50477877937804,-194.7977281885245)"><circle class="outline" cx="0" cy="0" r="25" fill="#ECB5C9" stroke="#da7298" stroke-width="2px"/><text text-anchor="middle" pointer-events="none" font-family="sans-serif" dy="1.5625" font-size="25" fill="#2A2C34"/><text text-anchor="middle" pointer-events="none" x="0" y="5" font-size="10px" fill="#2A2C34" font-family="sans-serif"> ABQ</text></g><g class="node" transform="translate(-124.71191391008887,299.4755153025561)"><circle class="outline" cx="0" cy="0" r="25" fill="#ECB5C9" stroke="#da7298" stroke-width="2px"/><text text-anchor="middle" pointer-events="none" font-family="sans-serif" dy="1.5625" font-size="25" fill="#2A2C34"/><text text-anchor="middle" pointer-events="none" x="0" y="5" font-size="10px" fill="#2A2C34" font-family="sans-serif"> EWR</text></g><g class="node" transform="translate(214.68137461847112,369.5567738637023)"><circle class="outline" cx="0" cy="0" r="25" fill="#ECB5C9" stroke="#da7298" stroke-width="2px"/><text text-anchor="middle" pointer-events="none" font-family="sans-serif" dy="1.5625" font-size="25" fill="#2A2C34"/><text text-anchor="middle" pointer-events="none" x="0" y="5" font-size="10px" fill="#2A2C34" font-family="sans-serif"> IAH</text></g><g class="node" transform="translate(-56.03094945628776,139.07871930424386)"><circle class="outline" cx="0" cy="0" r="25" fill="#4C8EDA" stroke="#2870c2" stroke-width="2px"/><text text-anchor="middle" pointer-events="none" font-family="sans-serif" dy="1.5625" font-size="25" fill="#FFFFFF"/><text text-anchor="middle" pointer-events="none" x="0" y="5" font-size="10px" fill="#FFFFFF" font-family="sans-serif"> 11/4/2015</text></g><g class="node" transform="translate(265.21981275952317,147.32048912992923)"><circle class="outline" cx="0" cy="0" r="25" fill="#4C8EDA" stroke="#2870c2" stroke-width="2px"/><text text-anchor="middle" pointer-events="none" font-family="sans-serif" dy="1.5625" font-size="25" fill="#FFFFFF"/><text text-anchor="middle" pointer-events="none" x="0" y="5" font-size="10px" fill="#FFFFFF" font-family="sans-serif"> 11/4/2015</text></g><g class="node" transform="translate(237.6208150626244,4.94603329924181)"><circle class="outline" cx="0" cy="0" r="25" fill="#4C8EDA" stroke="#2870c2" stroke-width="2px"/><text text-anchor="middle" pointer-events="none" font-family="sans-serif" dy="1.5625" font-size="25" fill="#FFFFFF"/><text text-anchor="middle" pointer-events="none" x="0" y="5" font-size="10px" fill="#FFFFFF" font-family="sans-serif"> 11/29/20…</text></g><g class="node" transform="translate(-36.95659707140174,65.58874014911707)"><circle class="outline" cx="0" cy="0" r="25" fill="#4C8EDA" stroke="#2870c2" stroke-width="2px"/><text text-anchor="middle" pointer-events="none" font-family="sans-serif" dy="1.5625" font-size="25" fill="#FFFFFF"/><text text-anchor="middle" pointer-events="none" x="0" y="5" font-size="10px" fill="#FFFFFF" font-family="sans-serif"> 11/2/2015</text></g><g class="node" transform="translate(93.93357900720085,239.29704253994325)"><circle class="outline" cx="0" cy="0" r="25" fill="#4C8EDA" stroke="#2870c2" stroke-width="2px"/><text text-anchor="middle" pointer-events="none" font-family="sans-serif" dy="1.5625" font-size="25" fill="#FFFFFF"/><text text-anchor="middle" pointer-events="none" x="0" y="5" font-size="10px" fill="#FFFFFF" font-family="sans-serif"> 11/1/2015</text></g><g class="node" transform="translate(118.35952764293384,-96.64186881799884)"><circle class="outline" cx="0" cy="0" r="25" fill="#4C8EDA" stroke="#2870c2" stroke-width="2px"/><text text-anchor="middle" pointer-events="none" font-family="sans-serif" dy="1.5625" font-size="25" fill="#FFFFFF"/><text text-anchor="middle" pointer-events="none" x="0" y="5" font-size="10px" fill="#FFFFFF" font-family="sans-serif"> 11/2/2015</text></g><g class="node" transform="translate(213.73512205627898,116.90630986324805)"><circle class="outline" cx="0" cy="0" r="25" fill="#4C8EDA" stroke="#2870c2" stroke-width="2px"/><text text-anchor="middle" pointer-events="none" font-family="sans-serif" dy="1.5625" font-size="25" fill="#FFFFFF"/><text text-anchor="middle" pointer-events="none" x="0" y="5" font-size="10px" fill="#FFFFFF" font-family="sans-serif"> 11/3/2015</text></g><g class="node" transform="translate(264.9017476569718,85.6950677942194)"><circle class="outline" cx="0" cy="0" r="25" fill="#4C8EDA" stroke="#2870c2" stroke-width="2px"/><text text-anchor="middle" pointer-events="none" font-family="sans-serif" dy="1.5625" font-size="25" fill="#FFFFFF"/><text text-anchor="middle" pointer-events="none" x="0" y="5" font-size="10px" fill="#FFFFFF" font-family="sans-serif"> 11/1/2015</text></g><g class="node" transform="translate(-91.2437946875922,90.6398013520614)"><circle class="outline" cx="0" cy="0" r="25" fill="#4C8EDA" stroke="#2870c2" stroke-width="2px"/><text text-anchor="middle" pointer-events="none" font-family="sans-serif" dy="1.5625" font-size="25" fill="#FFFFFF"/><text text-anchor="middle" pointer-events="none" x="0" y="5" font-size="10px" fill="#FFFFFF" font-family="sans-serif"> 11/1/2015</text></g><g class="node" transform="translate(147.84448917475393,-44.47600884295662)"><circle class="outline" cx="0" cy="0" r="25" fill="#4C8EDA" stroke="#2870c2" stroke-width="2px"/><text text-anchor="middle" pointer-events="none" font-family="sans-serif" dy="1.5625" font-size="25" fill="#FFFFFF"/><text text-anchor="middle" pointer-events="none" x="0" y="5" font-size="10px" fill="#FFFFFF" font-family="sans-serif"> 11/3/2015</text></g><g class="node" transform="translate(-77.48068062704793,21.42034890100919)"><circle class="outline" cx="0" cy="0" r="25" fill="#4C8EDA" stroke="#2870c2" stroke-width="2px"/><text text-anchor="middle" pointer-events="none" font-family="sans-serif" dy="1.5625" font-size="25" fill="#FFFFFF"/><text text-anchor="middle" pointer-events="none" x="0" y="5" font-size="10px" fill="#FFFFFF" font-family="sans-serif"> 11/3/2015</text></g><g class="node" transform="translate(178.3109345062127,-95.96419010692877)"><circle class="outline" cx="0" cy="0" r="25" fill="#4C8EDA" stroke="#2870c2" stroke-width="2px"/><text text-anchor="middle" pointer-events="none" font-family="sans-serif" dy="1.5625" font-size="25" fill="#FFFFFF"/><text text-anchor="middle" pointer-events="none" x="0" y="5" font-size="10px" fill="#FFFFFF" font-family="sans-serif"> 11/1/2015</text></g><g class="node" transform="translate(34.72375751429211,230.09102876235056)"><circle class="outline" cx="0" cy="0" r="25" fill="#4C8EDA" stroke="#2870c2" stroke-width="2px"/><text text-anchor="middle" pointer-events="none" font-family="sans-serif" dy="1.5625" font-size="25" fill="#FFFFFF"/><text text-anchor="middle" pointer-events="none" x="0" y="5" font-size="10px" fill="#FFFFFF" font-family="sans-serif"> 11/2/2015</text></g><g class="node" transform="translate(87.900097934217,-45.096224372204915)"><circle class="outline" cx="0" cy="0" r="25" fill="#4C8EDA" stroke="#2870c2" stroke-width="2px"/><text text-anchor="middle" pointer-events="none" font-family="sans-serif" dy="1.5625" font-size="25" fill="#FFFFFF"/><text text-anchor="middle" pointer-events="none" x="0" y="5" font-size="10px" fill="#FFFFFF" font-family="sans-serif"> 11/1/2015</text></g><g class="node" transform="translate(57.09994545339794,-96.45703235818169)"><circle class="outline" cx="0" cy="0" r="25" fill="#4C8EDA" stroke="#2870c2" stroke-width="2px"/><text text-anchor="middle" pointer-events="none" font-family="sans-serif" dy="1.5625" font-size="25" fill="#FFFFFF"/><text text-anchor="middle" pointer-events="none" x="0" y="5" font-size="10px" fill="#FFFFFF" font-family="sans-serif"> 11/2/2015</text></g><g class="node" transform="translate(27.911961036435454,-44.18462980314796)"><circle class="outline" cx="0" cy="0" r="25" fill="#4C8EDA" stroke="#2870c2" stroke-width="2px"/><text text-anchor="middle" pointer-events="none" font-family="sans-serif" dy="1.5625" font-size="25" fill="#FFFFFF"/><text text-anchor="middle" pointer-events="none" x="0" y="5" font-size="10px" fill="#FFFFFF" font-family="sans-serif"> 11/4/2015</text></g><g class="node" transform="translate(-15.061892290963762,193.29061676418698)"><circle class="outline" cx="0" cy="0" r="25" fill="#4C8EDA" stroke="#2870c2" stroke-width="2px"/><text text-anchor="middle" pointer-events="none" font-family="sans-serif" dy="1.5625" font-size="25" fill="#FFFFFF"/><text text-anchor="middle" pointer-events="none" x="0" y="5" font-size="10px" fill="#FFFFFF" font-family="sans-serif"> 11/30/20…</text></g><g class="node" transform="translate(219.1413280753784,185.62220549208735)"><circle class="outline" cx="0" cy="0" r="25" fill="#4C8EDA" stroke="#2870c2" stroke-width="2px"/><text text-anchor="middle" pointer-events="none" font-family="sans-serif" dy="1.5625" font-size="25" fill="#FFFFFF"/><text text-anchor="middle" pointer-events="none" x="0" y="5" font-size="10px" fill="#FFFFFF" font-family="sans-serif"> 11/2/2015</text></g><g class="node" transform="translate(-2.870357402584309,-95.48977053164448)"><circle class="outline" cx="0" cy="0" r="25" fill="#4C8EDA" stroke="#2870c2" stroke-width="2px"/><text text-anchor="middle" pointer-events="none" font-family="sans-serif" dy="1.5625" font-size="25" fill="#FFFFFF"/><text text-anchor="middle" pointer-events="none" x="0" y="5" font-size="10px" fill="#FFFFFF" font-family="sans-serif"> 11/3/2015</text></g><g class="node" transform="translate(155.14782152755814,226.7569500550048)"><circle class="outline" cx="0" cy="0" r="25" fill="#4C8EDA" stroke="#2870c2" stroke-width="2px"/><text text-anchor="middle" pointer-events="none" font-family="sans-serif" dy="1.5625" font-size="25" fill="#FFFFFF"/><text text-anchor="middle" pointer-events="none" x="0" y="5" font-size="10px" fill="#FFFFFF" font-family="sans-serif"> 11/30/20…</text></g></g></svg>