<svg xmlns="http://www.w3.org/2000/svg" width="314.13323974609375" height="412.50909423828125" viewBox="-62.9700927734375 -113.12669372558594 314.13323974609375 412.50909423828125"><title>Neo4j Graph Visualization</title><desc>Created using Neo4j (http://www.neo4j.com/)</desc><g class="layer relationships"><g class="relationship" transform="translate(177.05392842973325 269.6136009513304) rotate(242.45246589746455)"><path class="outline" fill="#A5ABB6" stroke="none" d="M 21.40063509461097,12.933012701892217 L 21.90063509461097,12.06698729810778 A 63.990574381344956 63.990574381344956 0 0 0 42.45813817660814,19.609596583619243 L 42.279396475673984,20.593492616921118 A 64.99057438134496 64.99057438134496 0 0 1 21.40063509461097,12.933012701892217 Z M 61.683725819927844,21.171806281379588 L 61.5638960814038,20.179011824422226 A 63.990574381344956 63.990574381344956 0 0 0 82.53410242296074,13.87406663887688 L 81.19148999537049,11.191271106362294 L 89.01772740342648,11.188436896585397 L 84.32425232641441,17.45112734889633 L 82.98163989882416,14.768331816381743 A 64.99057438134496 64.99057438134496 0 0 1 61.683725819927844,21.171806281379588"/><text text-anchor="middle" pointer-events="none" font-size="8px" fill="#000000" x="51.97474134762465" y="24.111476220529" transform="rotate(180 51.97474134762465 21.111476220529)" font-family="sans-serif">trek</text></g><g class="relationship" transform="translate(125.54503228789574 170.86603905734492) rotate(315.1841985056799)"><path class="outline" fill="#A5ABB6" stroke="none" d="M 24.018736134675446,-6.953439040707552 L 24.277555179777966,-5.987513214418485 A 138.4383387094018 138.4383387094018 0 0 1 35.16999713403179,-8.440014854489675 L 34.98985890853314,-9.42365616091908 A 139.4383387094018 139.4383387094018 0 0 0 24.018736134675446,-6.953439040707552 Z M 81.40041868066214,-10.069411234937718 L 81.24771760097622,-9.081138812848138 A 138.4383387094018 138.4383387094018 0 0 1 92.20417770194773,-6.9326421111610985 L 91.50864471178674,-4.014383407824857 L 99.12937017475912,-5.796108251341512 L 93.13155502216237,-10.82365371560942 L 92.43602203200139,-7.905395012273179 A 139.4383387094018 139.4383387094018 0 0 0 81.40041868066214,-10.069411234937718"/><text text-anchor="middle" pointer-events="none" font-size="8px" fill="#000000" x="58.1750372236677" y="-8.191238039703393" font-family="sans-serif">twowheeler</text></g><g class="relationship" transform="translate(213.11626432287244 83.85606490837205) rotate(274.39755093103264)"><path class="outline" fill="#A5ABB6" stroke="none" d="M 24.018736134675446,-6.953439040707552 L 24.277555179777966,-5.987513214418485 A 127.6011464015258 127.6011464015258 0 0 1 32.46793679657256,-7.8952234169434945 L 32.27330511849432,-8.8760998158279 A 128.6011464015258 128.6011464015258 0 0 0 24.018736134675446,-6.953439040707552 Z M 78.65932735767883,-9.549762629316774 L 78.4932622337678,-8.563647841566166 A 127.6011464015258 127.6011464015258 0 0 1 86.73558915497614,-6.894589373606201 L 86.04361040855596,-3.975485844352269 L 93.66216051430534,-5.76648955350145 L 87.65822748353636,-10.786727412611445 L 86.96624873711619,-7.8676238833575125 A 128.6011464015258 128.6011464015258 0 0 0 78.65932735767883,-9.549762629316774"/><text text-anchor="middle" pointer-events="none" font-size="8px" fill="#000000" x="55.442949092566735" y="-7.821909646267841" font-family="sans-serif">twowheeler</text></g><g class="relationship" transform="translate(222.163162335997 -33.78460522186507) rotate(203.9541953675631)"><path class="outline" fill="#A5ABB6" stroke="none" d="M 25 0.5 L 48.828736773916745 0.5 L 48.828736773916745 -0.5 L 25 -0.5 Z M 68.16467427391675 0.5 L 91.99341104783349 0.5 L 91.99341104783349 3.5 L 98.99341104783349 0 L 91.99341104783349 -3.5 L 91.99341104783349 -0.5 L 68.16467427391675 -0.5 Z"/><text text-anchor="middle" pointer-events="none" font-size="8px" fill="#000000" x="58.496705523916745" y="3" transform="rotate(180 58.496705523916745 0)" font-family="sans-serif">trek</text></g><g class="relationship" transform="translate(108.84926312503293 -84.12669724121281) rotate(499.49071547647674)"><path class="outline" fill="#A5ABB6" stroke="none" d="M 25 0.5 L 47.44675914605031 0.5 L 47.44675914605031 -0.5 L 25 -0.5 Z M 66.78269664605031 0.5 L 89.22945579210062 0.5 L 89.22945579210062 3.5 L 96.22945579210062 0 L 89.22945579210062 -3.5 L 89.22945579210062 -0.5 L 66.78269664605031 -0.5 Z"/><text text-anchor="middle" pointer-events="none" font-size="8px" fill="#000000" x="57.11472789605031" y="3" transform="rotate(180 57.11472789605031 0)" font-family="sans-serif">trek</text></g><g class="relationship" transform="translate(177.05392842973325 269.6136009513304) rotate(242.45246589746455)"><path class="outline" fill="#A5ABB6" stroke="none" d="M 25 0.5 L 41.181319045524 0.5 L 41.181319045524 -0.5 L 25 -0.5 Z M 63.193037795524 0.5 L 79.374356841048 0.5 L 79.374356841048 3.5 L 86.374356841048 0 L 79.374356841048 -3.5 L 79.374356841048 -0.5 L 63.193037795524 -0.5 Z"/><text text-anchor="middle" pointer-events="none" font-size="8px" fill="#000000" x="52.187178420524" y="3" transform="rotate(180 52.187178420524 0)" font-family="sans-serif">road</text></g><g class="relationship" transform="translate(177.05392842973325 269.6136009513304) rotate(242.45246589746455)"><path class="outline" fill="#A5ABB6" stroke="none" d="M 21.40063509461097,-12.933012701892217 L 21.90063509461097,-12.06698729810778 A 63.990574381344956 63.990574381344956 0 0 1 22.746843013638117,-12.547006068599124 L 22.26006695993346,-13.420532870443076 A 64.99057438134496 64.99057438134496 0 0 0 21.40063509461097,-12.933012701892217 Z M 82.09469977786138,-15.203804281300137 L 81.66080951360374,-14.302838555768673 A 63.990574381344956 63.990574381344956 0 0 1 82.53410242296074,-13.87406663887688 L 81.19148999537049,-11.191271106362294 L 89.01772740342648,-11.188436896585397 L 84.32425232641441,-17.45112734889633 L 82.98163989882416,-14.768331816381743 A 64.99057438134496 64.99057438134496 0 0 0 82.09469977786138,-15.203804281300137"/><text text-anchor="middle" pointer-events="none" font-size="8px" fill="#000000" x="51.974741347624644" y="-18.111476220529" transform="rotate(180 51.974741347624644 -21.111476220529)" font-family="sans-serif">PublicTransport</text></g><g class="relationship" transform="translate(125.54503228789574 170.86603905734492) rotate(315.1841985056799)"><path class="outline" fill="#A5ABB6" stroke="none" d="M 24.018736134675446,6.953439040707552 L 24.277555179777966,5.987513214418485 A 138.4383387094018 138.4383387094018 0 0 0 48.56218187794304,10.22237909575071 L 48.47878119544556,11.21889519003065 A 139.4383387094018 139.4383387094018 0 0 1 24.018736134675446,6.953439040707552 Z M 67.86677012440849,11.488659060308578 L 67.81112734792323,10.49020831969841 A 138.4383387094018 138.4383387094018 0 0 0 92.20417770194773,6.9326421111610985 L 91.50864471178674,4.014383407824857 L 99.12937017475912,5.796108251341512 L 93.13155502216237,10.82365371560942 L 92.43602203200139,7.905395012273179 A 139.4383387094018 139.4383387094018 0 0 1 67.86677012440849,11.488659060308578"/><text text-anchor="middle" pointer-events="none" font-size="8px" fill="#000000" x="58.17503722366772" y="14.191238039703393" font-family="sans-serif">trek</text></g><g class="relationship" transform="translate(213.11626432287244 83.85606490837205) rotate(274.39755093103264)"><path class="outline" fill="#A5ABB6" stroke="none" d="M 24.018736134675446,6.953439040707552 L 24.277555179777966,5.987513214418485 A 127.6011464015258 127.6011464015258 0 0 0 45.835405427566116,9.819057576050227 L 45.745533534238795,10.815010909690784 A 128.6011464015258 128.6011464015258 0 0 1 24.018736134675446,6.953439040707552 Z M 65.13647515853953,11.096624974881962 L 65.07556346892927,10.098481815776594 A 127.6011464015258 127.6011464015258 0 0 0 86.73558915497614,6.894589373606201 L 86.04361040855596,3.975485844352269 L 93.66216051430534,5.76648955350145 L 87.65822748353636,10.786727412611445 L 86.96624873711619,7.8676238833575125 A 128.6011464015258 128.6011464015258 0 0 1 65.13647515853953,11.096624974881962"/><text text-anchor="middle" pointer-events="none" font-size="8px" fill="#000000" x="55.44294909256679" y="13.82190964626784" font-family="sans-serif">trek</text></g><g class="relationship" transform="translate(222.163162335997 -33.78460522186507) rotate(513.6063479624146)"><path class="outline" fill="#A5ABB6" stroke="none" d="M 21.40063509461097,12.933012701892217 L 21.90063509461097,12.06698729810778 A 56.31360102958474 56.31360102958474 0 0 0 38.76078031467191,18.466875625545285 L 38.56017770556516,19.44654832253115 A 57.31360102958474 57.31360102958474 0 0 1 21.40063509461097,12.933012701892217 Z M 57.962462815442684,20.063807807417824 L 57.82453696426543,19.07336524998351 A 56.31360102958474 56.31360102958474 0 0 0 75.05738507978849,13.758102954242379 L 73.725560315612,11.069935772401516 L 81.55174596477993,11.09853970147072 L 76.83315143202381,17.34232586336353 L 75.50132666784732,14.654158681522667 A 57.31360102958474 57.31360102958474 0 0 1 57.962462815442684,20.063807807417824"/><text text-anchor="middle" pointer-events="none" font-size="8px" fill="#000000" x="48.250895783038104" y="23.082850120026826" transform="rotate(180 48.250895783038104 20.082850120026826)" font-family="sans-serif">trek</text></g><g class="relationship" transform="translate(129.04599267915034 12.426300997006257) rotate(189.00425433721983)"><path class="outline" fill="#A5ABB6" stroke="none" d="M 24.018736134675446,6.953439040707552 L 24.277555179777966,5.987513214418485 A 119.20951740427861 119.20951740427861 0 0 0 30.385386102629067,7.452788211285494 L 30.177803158937287,8.43100563164164 A 120.20951740427861 120.20951740427861 0 0 1 24.018736134675446,6.953439040707552 Z M 76.53913713667755,9.127874710761986 L 76.36104900391187,8.143860169727134 A 119.20951740427861 119.20951740427861 0 0 0 82.51016045681892,6.862822411381508 L 81.82114889772129,3.9430170974213743 L 89.43787478257552,5.741762992480361 L 83.42884253561579,10.755896163328352 L 82.73983097651815,7.836090849368219 A 120.20951740427861 120.20951740427861 0 0 1 76.53913713667755,9.127874710761986"/><text text-anchor="middle" pointer-events="none" font-size="8px" fill="#000000" x="53.33206748158766" y="13.53595780585161" transform="rotate(180 53.33206748158766 10.53595780585161)" font-family="sans-serif">twowheeler</text></g><g class="relationship" transform="translate(222.163162335997 -33.78460522186507) rotate(513.6063479624146)"><path class="outline" fill="#A5ABB6" stroke="none" d="M 25 0.5 L 37.470710198393554 0.5 L 37.470710198393554 -0.5 L 25 -0.5 Z M 59.482428948393554 0.5 L 71.95313914678711 0.5 L 71.95313914678711 3.5 L 78.95313914678711 0 L 71.95313914678711 -3.5 L 71.95313914678711 -0.5 L 59.482428948393554 -0.5 Z"/><text text-anchor="middle" pointer-events="none" font-size="8px" fill="#000000" x="48.476569573393554" y="3" transform="rotate(180 48.476569573393554 0)" font-family="sans-serif">road</text></g><g class="relationship" transform="translate(222.163162335997 -33.78460522186507) rotate(513.6063479624146)"><path class="outline" fill="#A5ABB6" stroke="none" d="M 21.40063509461097,-12.933012701892217 L 21.90063509461097,-12.06698729810778 A 56.31360102958474 56.31360102958474 0 0 1 26.034235758807984,-14.230360165702606 L 25.607638996900064,-15.134802094590071 A 57.31360102958474 57.31360102958474 0 0 0 21.40063509461097,-12.933012701892217 Z M 71.16287738231523,-16.584085146582545 L 70.79463247371112,-15.654356321985205 A 56.31360102958474 56.31360102958474 0 0 1 75.05738507978849,-13.758102954242379 L 73.725560315612,-11.069935772401516 L 81.55174596477993,-11.09853970147072 L 76.83315143202381,-17.34232586336353 L 75.50132666784732,-14.654158681522667 A 57.31360102958474 57.31360102958474 0 0 0 71.16287738231523,-16.584085146582545"/><text text-anchor="middle" pointer-events="none" font-size="8px" fill="#000000" x="48.25089578303809" y="-17.082850120026826" transform="rotate(180 48.25089578303809 -20.082850120026826)" font-family="sans-serif">twowheeler</text></g><g class="relationship" transform="translate(129.04599267915034 12.426300997006257) rotate(189.00425433721983)"><path class="outline" fill="#A5ABB6" stroke="none" d="M 24.018736134675446,-6.953439040707552 L 24.277555179777966,-5.987513214418485 A 119.20951740427861 119.20951740427861 0 0 1 43.729383157427854,-9.502957123487732 L 43.63373756022784,-10.498372574310281 A 120.20951740427861 120.20951740427861 0 0 0 24.018736134675446,-6.953439040707552 Z M 63.027145588862695,-10.789879854933588 L 62.96146113127667,-9.792039410758449 A 119.20951740427861 119.20951740427861 0 0 1 82.51016045681892,-6.862822411381508 L 81.82114889772129,-3.9430170974213743 L 89.43787478257552,-5.741762992480361 L 83.42884253561579,-10.755896163328352 L 82.73983097651815,-7.836090849368219 A 120.20951740427861 120.20951740427861 0 0 0 63.027145588862695,-10.789879854933588"/><text text-anchor="middle" pointer-events="none" font-size="8px" fill="#000000" x="53.33206748158767" y="-7.535957805851609" transform="rotate(180 53.33206748158767 -10.53595780585161)" font-family="sans-serif">trek</text></g><g class="relationship" transform="translate(125.54503228789574 170.86603905734492) rotate(479.7591267704121)"><path class="outline" fill="#A5ABB6" stroke="none" d="M 25 0.5 L 44.149209559724696 0.5 L 44.149209559724696 -0.5 L 25 -0.5 Z M 63.485147059724696 0.5 L 82.63435661944939 0.5 L 82.63435661944939 3.5 L 89.63435661944939 0 L 82.63435661944939 -3.5 L 82.63435661944939 -0.5 L 63.485147059724696 -0.5 Z"/><text text-anchor="middle" pointer-events="none" font-size="8px" fill="#000000" x="53.817178309724696" y="3" transform="rotate(180 53.817178309724696 0)" font-family="sans-serif">trek</text></g><g class="relationship" transform="translate(68.64571974558811 270.3823892203603) rotate(206.47142103835102)"><path class="outline" fill="#A5ABB6" stroke="none" d="M 21.40063509461097,-12.933012701892217 L 21.90063509461097,-12.06698729810778 A 67.35255489482233 67.35255489482233 0 0 1 31.134186749217122,-16.49877801019904 L 30.771279568769778,-17.43060330411403 A 68.35255489482233 68.35255489482233 0 0 0 21.40063509461097,-12.933012701892217 Z M 76.65000640859193,-18.761009475828246 L 76.34170639114569,-17.809720298320883 A 67.35255489482233 67.35255489482233 0 0 1 85.8165551031802,-13.920441835917323 L 84.4696288013474,-11.239809534121534 L 92.29585152434252,-11.224385848606737 L 87.61245683895729,-17.49461823831171 L 86.26553053712448,-14.81398593651592 A 68.35255489482233 68.35255489482233 0 0 0 76.65000640859193,-18.761009475828246"/><text text-anchor="middle" pointer-events="none" font-size="8px" fill="#000000" x="53.61012895462365" y="-18.56200792309987" transform="rotate(180 53.61012895462365 -21.56200792309987)" font-family="sans-serif">twowheeler</text></g><g class="relationship" transform="translate(-33.97009272164701 219.28392461936352) rotate(294.2493083678792)"><path class="outline" fill="#A5ABB6" stroke="none" d="M 21.40063509461097,12.933012701892217 L 21.90063509461097,12.06698729810778 A 66.49002387677473 66.49002387677473 0 0 0 42.36103928444214,19.73428295876458 L 42.16876069882681,20.715623340851124 A 67.49002387677473 67.49002387677473 0 0 1 21.40063509461097,12.933012701892217 Z M 64.23573813466899,21.359996899390154 L 64.10105021222482,20.36910883126758 A 66.49002387677473 66.49002387677473 0 0 0 84.97399243663037,13.908780259452248 L 83.628150895398,11.227603177293508 L 91.4543792185395,11.215346176936489 L 86.76844782494021,17.4836830356639 L 85.42260628370784,14.802505953505163 A 67.49002387677473 67.49002387677473 0 0 1 64.23573813466899,21.359996899390154"/><text text-anchor="middle" pointer-events="none" font-size="8px" fill="#000000" x="53.1903177108919" y="24.44641888503115" font-family="sans-serif">road</text></g><g class="relationship" transform="translate(12.76744229581456 115.52709961042814) rotate(271.85270636073705)"><path class="outline" fill="#A5ABB6" stroke="none" d="M 25 0.5 L 47.31696342954679 0.5 L 47.31696342954679 -0.5 L 25 -0.5 Z M 66.65290092954679 0.5 L 88.96986435909358 0.5 L 88.96986435909358 3.5 L 95.96986435909358 0 L 88.96986435909358 -3.5 L 88.96986435909358 -0.5 L 66.65290092954679 -0.5 Z"/><text text-anchor="middle" pointer-events="none" font-size="8px" fill="#000000" x="56.98493217954679" y="3" font-family="sans-serif">trek</text></g><g class="relationship" transform="translate(68.64571974558811 270.3823892203603) rotate(206.47142103835102)"><path class="outline" fill="#A5ABB6" stroke="none" d="M 25 0.5 L 42.81136764465372 0.5 L 42.81136764465372 -0.5 L 25 -0.5 Z M 64.82308639465373 0.5 L 82.63445403930744 0.5 L 82.63445403930744 3.5 L 89.63445403930744 0 L 82.63445403930744 -3.5 L 82.63445403930744 -0.5 L 64.82308639465373 -0.5 Z"/><text text-anchor="middle" pointer-events="none" font-size="8px" fill="#000000" x="53.81722701965372" y="3" transform="rotate(180 53.81722701965372 0)" font-family="sans-serif">road</text></g><g class="relationship" transform="translate(68.64571974558811 270.3823892203603) rotate(206.47142103835102)"><path class="outline" fill="#A5ABB6" stroke="none" d="M 21.40063509461097,12.933012701892217 L 21.90063509461097,12.06698729810778 A 67.35255489482233 67.35255489482233 0 0 0 44.08413781963487,20.102734373890726 L 43.913501757790826,21.088068497119167 A 68.35255489482233 68.35255489482233 0 0 1 21.40063509461097,12.933012701892217 Z M 63.31792581515066,21.650764267091233 L 63.204674550658204,20.657197887280162 A 67.35255489482233 67.35255489482233 0 0 0 85.8165551031802,13.920441835917323 L 84.4696288013474,11.239809534121534 L 92.29585152434252,11.224385848606737 L 87.61245683895729,17.49461823831171 L 86.26553053712448,14.81398593651592 A 68.35255489482233 68.35255489482233 0 0 1 63.31792581515066,21.650764267091233"/><text text-anchor="middle" pointer-events="none" font-size="8px" fill="#000000" x="53.61012895462365" y="24.56200792309987" transform="rotate(180 53.61012895462365 21.56200792309987)" font-family="sans-serif">trek</text></g><g class="relationship" transform="translate(-33.97009272164701 219.28392461936352) rotate(294.2493083678792)"><path class="outline" fill="#A5ABB6" stroke="none" d="M 25 0.5 L 30.16633890993117 0.5 L 30.16633890993117 -0.5 L 25 -0.5 Z M 76.63118265993117 0.5 L 81.79752156986234 0.5 L 81.79752156986234 3.5 L 88.79752156986234 0 L 81.79752156986234 -3.5 L 81.79752156986234 -0.5 L 76.63118265993117 -0.5 Z"/><text text-anchor="middle" pointer-events="none" font-size="8px" fill="#000000" x="53.39876078493117" y="3" font-family="sans-serif">twowheeler</text></g><g class="relationship" transform="translate(-33.97009272164701 219.28392461936352) rotate(294.2493083678792)"><path class="outline" fill="#A5ABB6" stroke="none" d="M 21.40063509461097,-12.933012701892217 L 21.90063509461097,-12.06698729810778 A 66.49002387677473 66.49002387677473 0 0 1 43.66662889297294,-19.976581399306397 L 43.49398617951415,-20.961565913646396 A 67.49002387677473 67.49002387677473 0 0 0 21.40063509461097,-12.933012701892217 Z M 62.898419527711475,-21.528191035023582 L 62.783546661332466,-20.534810833605277 A 66.49002387677473 66.49002387677473 0 0 1 84.97399243663037,-13.908780259452248 L 83.628150895398,-11.227603177293508 L 91.4543792185395,-11.215346176936489 L 86.76844782494021,-17.4836830356639 L 85.42260628370784,-14.802505953505163 A 67.49002387677473 67.49002387677473 0 0 0 62.898419527711475,-21.528191035023582"/><text text-anchor="middle" pointer-events="none" font-size="8px" fill="#000000" x="53.190317710891875" y="-18.44641888503115" font-family="sans-serif">trek</text></g><g class="relationship" transform="translate(125.54503228789574 170.86603905734492) rotate(206.13676758150683)"><path class="outline" fill="#A5ABB6" stroke="none" d="M 25 0.5 L 49.64362059371007 0.5 L 49.64362059371007 -0.5 L 25 -0.5 Z M 68.97955809371007 0.5 L 93.62317868742014 0.5 L 93.62317868742014 3.5 L 100.62317868742014 0 L 93.62317868742014 -3.5 L 93.62317868742014 -0.5 L 68.97955809371007 -0.5 Z"/><text text-anchor="middle" pointer-events="none" font-size="8px" fill="#000000" x="59.31158934371007" y="3" transform="rotate(180 59.31158934371007 0)" font-family="sans-serif">trek</text></g><g class="relationship" transform="translate(213.11626432287244 83.85606490837205) rotate(220.35267778237017)"><path class="outline" fill="#A5ABB6" stroke="none" d="M 24.018736134675446,-6.953439040707552 L 24.277555179777966,-5.987513214418485 A 112.32923074793972 112.32923074793972 0 0 1 28.685568892299784,-7.073660080853472 L 28.465991758524982,-8.04925522348347 A 113.32923074793972 113.32923074793972 0 0 0 24.018736134675446,-6.953439040707552 Z M 74.80210297590907,-8.766279281156855 L 74.61281726898883,-7.7843572266353505 A 112.32923074793972 112.32923074793972 0 0 1 79.05232734371036,-6.835120585068593 L 78.36590330910649,-3.9147058808325417 L 85.98103232602845,-5.720200288365575 L 79.96755938984886,-10.729006857383329 L 79.28113535524498,-7.808592153147278 A 113.32923074793972 113.32923074793972 0 0 0 74.80210297590907,-8.766279281156855"/><text text-anchor="middle" pointer-events="none" font-size="8px" fill="#000000" x="51.60474246483625" y="-7.301532463401159" transform="rotate(180 51.60474246483625 -10.30153246340116)" font-family="sans-serif">twowheeler</text></g><g class="relationship" transform="translate(213.11626432287244 83.85606490837205) rotate(220.35267778237017)"><path class="outline" fill="#A5ABB6" stroke="none" d="M 24.018736134675446,6.953439040707552 L 24.277555179777966,5.987513214418485 A 112.32923074793972 112.32923074793972 0 0 0 42.00665468076572,9.240777951910331 L 41.90566721149559,10.23566564961817 A 113.32923074793972 113.32923074793972 0 0 1 24.018736134675446,6.953439040707552 Z M 61.301211811583684,10.535800290280946 L 61.23105592735107,9.538264249875624 A 112.32923074793972 112.32923074793972 0 0 0 79.05232734371036,6.835120585068593 L 78.36590330910649,3.9147058808325417 L 85.98103232602845,5.720200288365575 L 79.96755938984886,10.729006857383329 L 79.28113535524498,7.808592153147278 A 113.32923074793972 113.32923074793972 0 0 1 61.301211811583684,10.535800290280946"/><text text-anchor="middle" pointer-events="none" font-size="8px" fill="#000000" x="51.60474246483626" y="13.30153246340116" transform="rotate(180 51.60474246483626 10.30153246340116)" font-family="sans-serif">trek</text></g><g class="relationship" transform="translate(177.05392842973325 269.6136009513304) rotate(539.59368773544)"><path class="outline" fill="#A5ABB6" stroke="none" d="M 24.018736134675446,-6.953439040707552 L 24.277555179777966,-5.987513214418485 A 108.52250785536242 108.52250785536242 0 0 1 39.731589131251866,-8.947445202628387 L 39.615174037706296,-9.940645850027892 A 109.52250785536242 109.52250785536242 0 0 0 24.018736134675446,-6.953439040707552 Z M 61.68757323438075,-10.287858338726949 L 61.60245533138625,-9.291487452666033 A 108.52250785536242 108.52250785536242 0 0 1 77.14194298408184,-6.819102725351667 L 76.45701513532433,-3.8983367569802887 L 84.07121821840798,-5.707732072979347 L 78.05518011575853,-10.713457349846838 L 77.37025226700102,-7.79269138147546 A 109.52250785536242 109.52250785536242 0 0 0 61.68757323438075,-10.287858338726949"/><text text-anchor="middle" pointer-events="none" font-size="8px" fill="#000000" x="50.6504677180837" y="-7.171841563360587" transform="rotate(180 50.6504677180837 -10.171841563360587)" font-family="sans-serif">road</text></g><g class="relationship" transform="translate(177.05392842973325 269.6136009513304) rotate(539.59368773544)"><path class="outline" fill="#A5ABB6" stroke="none" d="M 24.018736134675446,6.953439040707552 L 24.277555179777966,5.987513214418485 A 108.52250785536242 108.52250785536242 0 0 0 41.05520690897102,9.094361888781577 L 40.95098852746129,10.088916326183309 A 109.52250785536242 109.52250785536242 0 0 1 24.018736134675446,6.953439040707552 Z M 60.34775606342351,10.394039474277392 L 60.274871419118874,9.396699096760983 A 108.52250785536242 108.52250785536242 0 0 0 77.14194298408184,6.819102725351667 L 76.45701513532433,3.8983367569802887 L 84.07121821840798,5.707732072979347 L 78.05518011575853,10.713457349846838 L 77.37025226700102,7.79269138147546 A 109.52250785536242 109.52250785536242 0 0 1 60.34775606342351,10.394039474277392"/><text text-anchor="middle" pointer-events="none" font-size="8px" fill="#000000" x="50.650467718083725" y="13.171841563360587" transform="rotate(180 50.650467718083725 10.171841563360587)" font-family="sans-serif">trek</text></g></g><g class="layer nodes"><g class="node" transform="translate(177.05392842973325,269.6136009513304)"><circle class="outline" cx="0" cy="0" r="25" fill="#F16667" stroke="#eb2728" stroke-width="2px"/><text text-anchor="middle" pointer-events="none" font-family="sans-serif" dy="1.5625" font-size="25" fill="#FFFFFF"/><text text-anchor="middle" pointer-events="none" x="0" y="5" font-size="10px" fill="#FFFFFF" font-family="sans-serif"> Darjeeling</text></g><g class="node" transform="translate(16.678421149059783,-5.379526872436602)"><circle class="outline" cx="0" cy="0" r="25" fill="#D9C8AE" stroke="#c0a378" stroke-width="2px"/><text text-anchor="middle" pointer-events="none" font-family="sans-serif" dy="1.5625" font-size="25" fill="#2A2C34"/><text text-anchor="middle" pointer-events="none" x="0" y="5" font-size="10px" fill="#2A2C34" font-family="sans-serif"> Sandak…</text></g><g class="node" transform="translate(125.54503228789574,170.86603905734492)"><circle class="outline" cx="0" cy="0" r="25" fill="#F16667" stroke="#eb2728" stroke-width="2px"/><text text-anchor="middle" pointer-events="none" font-family="sans-serif" dy="1.5625" font-size="25" fill="#FFFFFF"/><text text-anchor="middle" pointer-events="none" x="0" y="5" font-size="10px" fill="#FFFFFF" font-family="sans-serif"> Rimbik</text></g><g class="node" transform="translate(213.11626432287244,83.85606490837205)"><circle class="outline" cx="0" cy="0" r="25" fill="#8DCC93" stroke="#5db665" stroke-width="2px"/><text text-anchor="middle" pointer-events="none" font-family="sans-serif" dy="1.5625" font-size="25" fill="#2A2C34"/><text text-anchor="middle" pointer-events="none" x="0" y="5" font-size="10px" fill="#2A2C34" font-family="sans-serif"> Sirikhola</text></g><g class="node" transform="translate(222.163162335997,-33.78460522186507)"><circle class="outline" cx="0" cy="0" r="25" fill="#8DCC93" stroke="#5db665" stroke-width="2px"/><text text-anchor="middle" pointer-events="none" font-family="sans-serif" dy="1.5625" font-size="25" fill="#2A2C34"/><text text-anchor="middle" pointer-events="none" x="0" y="5" font-size="10px" fill="#2A2C34" font-family="sans-serif"> Rammam</text></g><g class="node" transform="translate(108.84926312503293,-84.12669724121281)"><circle class="outline" cx="0" cy="0" r="25" fill="#D9C8AE" stroke="#c0a378" stroke-width="2px"/><text text-anchor="middle" pointer-events="none" font-family="sans-serif" dy="1.5625" font-size="25" fill="#2A2C34"/><text text-anchor="middle" pointer-events="none" x="0" y="5" font-size="10px" fill="#2A2C34" font-family="sans-serif"> Sabargr…</text></g><g class="node" transform="translate(129.04599267915034,12.426300997006257)"><circle class="outline" cx="0" cy="0" r="25" fill="#8DCC93" stroke="#5db665" stroke-width="2px"/><text text-anchor="middle" pointer-events="none" font-family="sans-serif" dy="1.5625" font-size="25" fill="#2A2C34"/><text text-anchor="middle" pointer-events="none" x="0" y="5" font-size="10px" fill="#2A2C34" font-family="sans-serif"> Gurdum</text></g><g class="node" transform="translate(68.64571974558811,270.3823892203603)"><circle class="outline" cx="0" cy="0" r="25" fill="#8DCC93" stroke="#5db665" stroke-width="2px"/><text text-anchor="middle" pointer-events="none" font-family="sans-serif" dy="1.5625" font-size="25" fill="#2A2C34"/><text text-anchor="middle" pointer-events="none" x="0" y="5" font-size="10px" fill="#2A2C34" font-family="sans-serif"> Tumbling</text></g><g class="node" transform="translate(-33.97009272164701,219.28392461936352)"><circle class="outline" cx="0" cy="0" r="25" fill="#8DCC93" stroke="#5db665" stroke-width="2px"/><text text-anchor="middle" pointer-events="none" font-family="sans-serif" dy="1.5625" font-size="25" fill="#2A2C34"/><text text-anchor="middle" pointer-events="none" x="0" y="5" font-size="10px" fill="#2A2C34" font-family="sans-serif"> Gairibus</text></g><g class="node" transform="translate(12.76744229581456,115.52709961042814)"><circle class="outline" cx="0" cy="0" r="25" fill="#8DCC93" stroke="#5db665" stroke-width="2px"/><text text-anchor="middle" pointer-events="none" font-family="sans-serif" dy="1.5625" font-size="25" fill="#2A2C34"/><text text-anchor="middle" pointer-events="none" x="0" y="5" font-size="10px" fill="#2A2C34" font-family="sans-serif"> BhikeBh…</text></g></g></svg>